# xmcd
#
# Track frame offsets: 
#        205
#        7817
#        31905
#        48692
#        70180
#        90920
#        110002
#        143012
#        156537
#
# Disc length: 2283 seconds
#
# Revision: 0
# Processed by: cddbd v1.5.2PL0 Copyright (c) Steve Scherf et al.
# Submitted via: ExactAudioCopy v0.99pb5
#
DISCID=6e08e909
DTITLE=Deathwish - Demon Preacher
DYEAR=1989
DGENRE=Thrash Metal
TTITLE0=Death Procession
TTITLE1=Demon Preacher
TTITLE2=Carrion
TTITLE3=Visions Of Insanity
TTITLE4=Symptom Of The Universe
TTITLE5=Wall Of Lies
TTITLE6=Prey To The Lord
TTITLE7=Fatal Attraction
TTITLE8=Past Life
EXTD=
EXTT0=
EXTT1=
EXTT2=
EXTT3=
EXTT4=
EXTT5=
EXTT6=
EXTT7=
EXTT8=
PLAYORDER=
